<svg xmlns="http://www.w3.org/2000/svg" width="8.8" height="18.106" viewBox="854 1462 8.8 18.106"><path d="M856.247 1480.106v-8.496H854v-3.059h2.247v-2.612a3.688 3.688 0 0 1 2.012-3.439 4.782 4.782 0 0 1 1.606-.457 6.685 6.685 0 0 1 .766-.043 19.91 19.91 0 0 1 .555.008c.947.026 1.598.11 1.598.11l-.072 2.857s-.88-.008-1.863-.009a177.554 177.554 0 0 0-.089 0 2.51 2.51 0 0 0-.442.035c-.528.095-.734.382-.805.816a3.16 3.16 0 0 0-.032.5v2.234h3.319l-.144 3.06h-3.175v8.495h-3.234Z" fill="#fff" fill-rule="evenodd" data-name="facebook"/></svg>