<svg xmlns="http://www.w3.org/2000/svg" width="29" height="27.35"><path d="M12.398 25.397 14.5 27.35l2.102-1.967a374.748 374.748 0 0 0 3.647-3.429C25.633 16.797 29 12.854 29 8.198a8.302 8.302 0 0 0-2.18-5.68A7.841 7.841 0 0 0 21.025 0C18.502 0 16.08 1.207 14.5 3.115A8.59 8.59 0 0 0 7.975 0 7.976 7.976 0 0 0 .033 7.427a8.876 8.876 0 0 0-.033.77c0 5.264 4.303 9.617 10.959 15.855a1176.43 1176.43 0 0 0 1.439 1.345Zm2.247-2.22-.145.149-.145-.15a318.636 318.636 0 0 1-4.068-3.828C5.721 14.94 2.9 11.588 2.9 8.198a5.395 5.395 0 0 1 .944-3.114c.876-1.254 2.294-2.052 3.968-2.1a5.6 5.6 0 0 1 .163-.003 5.668 5.668 0 0 1 5.176 3.517h2.712c.754-2.042 2.929-3.517 5.162-3.517a5.002 5.002 0 0 1 3.495 1.362c.876.835 1.445 2.003 1.559 3.35a5.989 5.989 0 0 1 .021.505c0 3.361-2.773 6.687-7.272 11.038a307.13 307.13 0 0 1-4.183 3.94Z" fill="#b27208" fill-rule="evenodd" data-name="ic_favorite_border_24px"/></svg>