<svg xmlns="http://www.w3.org/2000/svg" width="37.714" height="33" viewBox="1821 45 37.714 33"><g data-name="menu-right-alt"><path d="M1823.357 45h33a2.357 2.357 0 0 1 2.357 2.357 2.357 2.357 0 0 1-2.357 2.357h-33a2.357 2.357 0 0 1-2.357-2.357 2.357 2.357 0 0 1 2.357-2.357Z" fill="#fff" fill-rule="evenodd" data-name="Path 58491"/><path d="M1823.357 73.286h33a2.357 2.357 0 0 1 2.357 2.357 2.357 2.357 0 0 1-2.357 2.357h-33a2.357 2.357 0 0 1-2.357-2.357 2.357 2.357 0 0 1 2.357-2.357Z" fill="#fff" fill-rule="evenodd" data-name="Path 58492"/><path d="M1837.5 63.857h18.857a2.357 2.357 0 0 0 2.357-2.357 2.357 2.357 0 0 0-2.357-2.357H1837.5a2.357 2.357 0 1 0 0 4.714Z" fill="#fff" fill-rule="evenodd" data-name="Path 58493"/></g></svg>