<svg xmlns="http://www.w3.org/2000/svg" width="24.751" height="36.002" viewBox="5.624 -0.001 24.751 36.002"><path d="m25.826 1.458-4.053 13.167h7.477a1.125 1.125 0 0 1 1.034.68c.178.411.093.89-.215 1.217l-18 19.125a1.124 1.124 0 0 1-.82.354L11.207 36a1.122 1.122 0 0 1-.522-.152 1.125 1.125 0 0 1-.56-.972c0-.047.004-.093.01-.14a1.128 1.128 0 0 1 .041-.192l4.052-13.169H6.75a1.125 1.125 0 0 1-1.126-1.125 1.125 1.125 0 0 1 .307-.772l18-19.125a1.124 1.124 0 0 1 .82-.354h.044a1.122 1.122 0 0 1 .52.152v.002a1.125 1.125 0 0 1 .561.973c0 .11-.016.222-.05.332Z" fill="#fff" fill-rule="evenodd" data-name="Path 61391"/></svg>