<svg xmlns="http://www.w3.org/2000/svg" width="26.399" height="29.215"><path d="M19.124 21.779 8.668 15.693a4.801 4.801 0 0 0 .132-1.027 4.801 4.801 0 0 0-.132-1.027l10.34-6.027a4.387 4.387 0 0 0 2.802 1.184 4.404 4.404 0 0 0 .189.004 4.394 4.394 0 0 0 4.4-4.4 4.394 4.394 0 0 0-4.4-4.4 4.394 4.394 0 0 0-4.4 4.4c0 .352.059.69.132 1.026l-10.34 6.028A4.38 4.38 0 0 0 4.4 10.266a4.394 4.394 0 0 0-4.4 4.4c0 2.434 1.965 4.4 4.4 4.4a4.335 4.335 0 0 0 2.395-.72 4.593 4.593 0 0 0 .597-.468l10.442 6.1a4.138 4.138 0 0 0-.118.954A4.287 4.287 0 0 0 22 29.215a4.287 4.287 0 0 0 4.282-4.283A4.287 4.287 0 0 0 22 20.65a4.196 4.196 0 0 0-2.178.61 4.525 4.525 0 0 0-.697.519Z" fill="#b27208" fill-rule="evenodd" data-name="ic_share_24px"/></svg>