<svg xmlns="http://www.w3.org/2000/svg" width="36.001" height="36.001" viewBox="39 31 36.001 36.001"><path d="M70.5 67h-27a4.333 4.333 0 0 1-3.14-1.277 5.247 5.247 0 0 1-.042-.041A4.325 4.325 0 0 1 39 62.561V44.5c0-1.242.44-2.303 1.318-3.182.878-.879 1.938-1.318 3.18-1.318a3.323 3.323 0 0 1 .002 0H48v-3.375a5.151 5.151 0 0 1 1.576-3.803 6.367 6.367 0 0 1 .217-.205 6.972 6.972 0 0 1 1.438-1.017 5.111 5.111 0 0 1 2.394-.6h6.75c1.36 0 2.637.539 3.832 1.617a5.367 5.367 0 0 1 1.399 1.937A5.358 5.358 0 0 1 66 36.625V40h4.5a4.333 4.333 0 0 1 3.14 1.277 5.242 5.242 0 0 1 .042.041c.879.878 1.318 1.938 1.318 3.18a4.998 4.998 0 0 1 0 .002v18a4.333 4.333 0 0 1-1.277 3.14 5.247 5.247 0 0 1-.041.042c-.878.879-1.938 1.318-3.18 1.318a3.332 3.332 0 0 1-.002 0Zm-2.25-13.5-9 2.25 2.25 6.75 9-2.25-2.25-6.75Zm-9-18h-4.5a2.192 2.192 0 0 0-1.582.65 2.14 2.14 0 0 0-.668 1.556 2.674 2.674 0 0 0 0 .044V40h9v-2.25c0-.633-.217-1.166-.65-1.6-.433-.433-.965-.65-1.597-.65a1.768 1.768 0 0 0-.003 0ZM49.125 46.75a3.254 3.254 0 0 0-2.36.953 3.874 3.874 0 0 0-.031.031c-.657.656-.985 1.453-.984 2.391a3.314 3.314 0 0 0 .385 1.594 3.421 3.421 0 0 0 .599.797 3.248 3.248 0 0 0 2.347.984 3.998 3.998 0 0 0 .044 0 3.312 3.312 0 0 0 1.576-.375 3.406 3.406 0 0 0 .815-.609 3.255 3.255 0 0 0 .984-2.347 4.005 4.005 0 0 0 0-.044 4.005 4.005 0 0 0 0-.03 3.247 3.247 0 0 0-.984-2.361c-.657-.656-1.454-.984-2.391-.984Z" fill="#fff" fill-rule="evenodd" data-name="travel"/></svg>