<svg xmlns="http://www.w3.org/2000/svg" width="19.827" height="16.107" viewBox="883 1462.999 19.827 16.107"><path d="M883.8 1468.712v-.05a4.014 4.014 0 0 0 1.842.509 4.04 4.04 0 0 1-1.322-1.45 3.969 3.969 0 0 1-.488-1.934c0-.732.183-1.413.55-2.044a11.581 11.581 0 0 0 3.708 3.002c1.453.75 3.01 1.166 4.674 1.249a3.966 3.966 0 0 1-.106-.896 4.386 4.386 0 0 1 0-.03 3.913 3.913 0 0 1 1.154-2.838 4.742 4.742 0 0 1 .037-.037c.795-.795 1.753-1.193 2.876-1.193a3.904 3.904 0 0 1 2.874 1.185 4.746 4.746 0 0 1 .095.099 8.101 8.101 0 0 0 2.582-.988 3.933 3.933 0 0 1-1.786 2.25 8.129 8.129 0 0 0 2.337-.638 8.236 8.236 0 0 1-2.033 2.1c.009.155.013.331.013.527a11.64 11.64 0 0 1-.476 3.266 11.651 11.651 0 0 1-1.453 3.13 12.358 12.358 0 0 1-2.329 2.649 9.771 9.771 0 0 1-2.115 1.365 12.022 12.022 0 0 1-1.133.475 11.69 11.69 0 0 1-3.528.675 13.399 13.399 0 0 1-.538.011c-2.257 0-4.335-.61-6.235-1.828a9.098 9.098 0 0 0 .735.053 7.95 7.95 0 0 0 .235.003 7.975 7.975 0 0 0 5.053-1.742 3.947 3.947 0 0 1-2.362-.812 3.998 3.998 0 0 1-1.436-2.013 4.096 4.096 0 0 0 1.837-.068 3.964 3.964 0 0 1-2.335-1.402 3.936 3.936 0 0 1-.928-2.585Z" fill="#fff" fill-rule="evenodd" data-name="twitter-bird"/></svg>