<svg xmlns="http://www.w3.org/2000/svg" width="19.104" height="23.1" viewBox="923 1459 19.104 23.1"><path d="M942.077 1477.025a43.53 43.53 0 0 0 .027-1.577c0-1.533-.064-2.763-.19-3.688a9.083 9.083 0 0 0-.146-.823 2.354 2.354 0 0 0-.741-1.276 2.36 2.36 0 0 0-1.321-.606c-1.582-.172-3.967-.258-7.155-.258s-5.568.086-7.14.258a2.335 2.335 0 0 0-1.328.606c-.379.344-.628.769-.748 1.276a8.914 8.914 0 0 0-.103.547c-.103.642-.17 1.438-.205 2.388a43.53 43.53 0 0 0-.027 1.576c0 2.046.112 3.55.335 4.512.112.507.359.933.741 1.276a2.287 2.287 0 0 0 1.321.593 27.491 27.491 0 0 0 .991.094c1.528.118 3.582.177 6.164.177 3.189 0 5.573-.09 7.154-.27a2.252 2.252 0 0 0 1.315-.594 2.448 2.448 0 0 0 .748-1.276 8.914 8.914 0 0 0 .103-.547c.102-.642.17-1.438.205-2.388Zm-3.75-15.82v6.432h-1.173v-.709c-.456.533-.898.8-1.328.8a1.118 1.118 0 0 1-.284-.034.656.656 0 0 1-.476-.443 1.477 1.477 0 0 1-.05-.201 4.426 4.426 0 0 1-.053-.766v-5.08h1.173v4.731a23.512 23.512 0 0 0 0 .1c0 .22.005.336.012.351.024.177.105.272.243.283a.352.352 0 0 0 .028 0 .53.53 0 0 0 .26-.073c.119-.067.24-.178.366-.335a2.752 2.752 0 0 0 .109-.146v-4.91h1.173Zm-7.541 18.369h1.147v-6.368h-1.147v4.873a2.434 2.434 0 0 1-.18.224c-.135.15-.268.246-.396.29a.488.488 0 0 1-.159.027.29.29 0 0 1-.115-.021c-.08-.035-.131-.111-.152-.23a.618.618 0 0 1-.003-.02 3.6 3.6 0 0 1-.013-.45v-4.693h-1.148v5.04a6.174 6.174 0 0 0 .009.33c.01.198.031.364.063.498a1.314 1.314 0 0 0 .032.113.67.67 0 0 0 .182.295c.132.121.32.182.565.182a1.159 1.159 0 0 0 .505-.125c.24-.115.487-.31.743-.586a4.556 4.556 0 0 0 .067-.075v.696ZM929.239 1459h1.315l-1.56 5.144v3.493h-1.29v-3.493a10.224 10.224 0 0 0-.134-.602c-.11-.435-.263-.954-.46-1.555a45.452 45.452 0 0 0-.191-.576 126.449 126.449 0 0 1-.449-1.267 92.095 92.095 0 0 1-.39-1.144h1.367l.915 3.39.877-3.39Zm-2.166 13.239h1.38v-1.212h-4.023v1.212h1.354v7.335h1.289v-7.335Zm9.243 5.427v-2.54c0-.627-.039-1.053-.116-1.276-.147-.481-.452-.722-.915-.722a1.243 1.243 0 0 0-.687.214 2.199 2.199 0 0 0-.512.482v-2.797h-1.147v8.546h1.147v-.618c.235.286.474.486.718.599a1.135 1.135 0 0 0 .48.11 1.03 1.03 0 0 0 .387-.069c.252-.101.428-.315.529-.64a1.488 1.488 0 0 0 .05-.211c.042-.237.064-.575.066-1.015a14.745 14.745 0 0 0 0-.064Zm4.357-.129v-.167H939.5c0 .426-.008.685-.024.778a.311.311 0 0 1-.002.008c-.053.272-.193.425-.42.457a.681.681 0 0 1-.096.007c-.328 0-.52-.204-.575-.613a2.053 2.053 0 0 1-.018-.277v-1.121h2.308v-1.328a4.739 4.739 0 0 0-.028-.53c-.047-.415-.153-.737-.32-.965a1.6 1.6 0 0 0-1.156-.648 2.104 2.104 0 0 0-.21-.01 1.871 1.871 0 0 0-.645.107 1.607 1.607 0 0 0-.735.55c-.225.298-.345.754-.36 1.368a5.455 5.455 0 0 0 0 .128v2.23a4.409 4.409 0 0 0 .029.53c.046.377.145.678.297.9a1.208 1.208 0 0 0 .047.065 1.615 1.615 0 0 0 1.176.647 2.226 2.226 0 0 0 .217.01 1.989 1.989 0 0 0 .583-.08 1.477 1.477 0 0 0 .809-.603 1.827 1.827 0 0 0 .175-.326 1.384 1.384 0 0 0 .096-.37c.017-.077.025-.327.025-.748Zm-6.665-14.244v2.256a4.787 4.787 0 0 1-.027.535c-.042.371-.131.668-.268.89a1.208 1.208 0 0 1-.066.096c-.326.439-.782.658-1.366.658a1.815 1.815 0 0 1-.629-.104 1.565 1.565 0 0 1-.724-.554 1.532 1.532 0 0 1-.213-.422 3.326 3.326 0 0 1-.147-.991 5.65 5.65 0 0 1-.001-.108v-2.256c0-.623.099-1.095.296-1.414a1.215 1.215 0 0 1 .065-.094 1.562 1.562 0 0 1 1.137-.647 2.093 2.093 0 0 1 .216-.01 1.867 1.867 0 0 1 .62.097 1.56 1.56 0 0 1 .746.56c.241.318.361.82.361 1.508Zm1.16 11.743v2.72c0 .37-.069.621-.207.753a.41.41 0 0 1-.295.11c-.197 0-.39-.094-.58-.283v-3.88a1.225 1.225 0 0 1 .183-.153.787.787 0 0 1 .234-.11.628.628 0 0 1 .163-.02.415.415 0 0 1 .396.25c.061.124.096.293.105.507a2.699 2.699 0 0 1 .002.106Zm-2.333-9.268v-2.708a2.134 2.134 0 0 0-.019-.302c-.034-.237-.113-.402-.236-.495a.48.48 0 0 0-.299-.092c-.353 0-.537.27-.553.81a2.664 2.664 0 0 0-.001.08v2.707c0 .401.082.669.247.802a.472.472 0 0 0 .307.1.461.461 0 0 0 .44-.27c.077-.149.114-.36.114-.632Zm6.69 9.28v.594h-1.16v-.593a1.96 1.96 0 0 1 .022-.31c.058-.36.23-.549.516-.566a.727.727 0 0 1 .042 0 .488.488 0 0 1 .465.269c.072.135.11.321.115.558a2.54 2.54 0 0 1 0 .049Z" fill="#fff" fill-rule="evenodd" data-name="youtube"/></svg>