<svg xmlns="http://www.w3.org/2000/svg"  viewBox="38.5 38.142 36 30.858"><path d="M72.431 53.571h-7.413l-2.23-4.44a1.198 1.198 0 0 0-.469-.516 1.469 1.469 0 0 0-.043-.026 1.203 1.203 0 0 0-.733-.161c-.57.063-.936.341-1.099.835a1.635 1.635 0 0 0-.026.089l-2.592 8.638-3.938-13.781a1.264 1.264 0 0 0-.472-.663 1.295 1.295 0 0 0-.793-.261 1.223 1.223 0 0 0-.783.271 1.227 1.227 0 0 0-.442.693l-2.331 9.322h-8.498a14.313 14.313 0 0 1-1.26-2.307c-.54-1.266-.809-2.506-.809-3.72a12.358 12.358 0 0 1 .301-2.81 8.192 8.192 0 0 1 2.25-4.101c1.66-1.622 3.94-2.451 6.841-2.49a16.017 16.017 0 0 1 .211-.001 7.772 7.772 0 0 1 2.017.274 9.085 9.085 0 0 1 .524.158c.863.288 1.667.676 2.411 1.165a31.349 31.349 0 0 1 .916.624 18.93 18.93 0 0 1 2.529 2.118 18.485 18.485 0 0 1 1.527-1.366 20.576 20.576 0 0 1 .763-.58c.264-.192.547-.39.849-.592a35.448 35.448 0 0 1 .307-.204 10.293 10.293 0 0 1 2.411-1.165 8.372 8.372 0 0 1 1.757-.39 7.343 7.343 0 0 1 .783-.042 13.12 13.12 0 0 1 2.863.294c1.336.299 2.493.824 3.473 1.577a7.98 7.98 0 0 1 .715.62 8.192 8.192 0 0 1 2.25 4.1 12.358 12.358 0 0 1 .301 2.811h.001a9.21 9.21 0 0 1-.61 3.223 13.324 13.324 0 0 1-1.202 2.405 16.766 16.766 0 0 1-.257.399Zm-8.217 2.571h6.127a2.118 2.118 0 0 1-.113.126 1.694 1.694 0 0 1-.088.085 3.48 3.48 0 0 1-.142.12 2.203 2.203 0 0 1-.039.031l-.06.08-12.516 12.054a1.2 1.2 0 0 1-.868.362 1.494 1.494 0 0 1-.016 0 1.24 1.24 0 0 1-.548-.12 1.238 1.238 0 0 1-.336-.242L43.08 56.544c-.067-.027-.207-.16-.422-.402h7.413a1.268 1.268 0 0 0 .794-.271c.235-.18.385-.412.452-.693l1.406-5.645 3.817 13.4c.08.268.235.489.462.663a1.253 1.253 0 0 0 .783.261 1.224 1.224 0 0 0 .763-.261c.227-.174.381-.395.462-.663l2.933-9.743 1.125 2.25c.22.426.554.658 1.005.697a1.624 1.624 0 0 0 .14.006l.001-.001Z" fill="#fff" fill-rule="evenodd" data-name="heartbeat"/></svg>