<svg xmlns="http://www.w3.org/2000/svg" width="36" height="35.967" viewBox="39.5 33.033 36 35.967"><path d="M71.527 52.547 71 52.055V66.75h3.375a1.079 1.079 0 0 1 .78.324 1.37 1.37 0 0 1 .011.01 1.137 1.137 0 0 1 .26.39 1.09 1.09 0 0 1 .074.401 1.079 1.079 0 0 1-.324.78 1.37 1.37 0 0 1-.01.011 1.137 1.137 0 0 1-.39.26 1.09 1.09 0 0 1-.401.074H40.66a1.079 1.079 0 0 1-.78-.324 1.37 1.37 0 0 1-.011-.01 1.137 1.137 0 0 1-.26-.39 1.09 1.09 0 0 1-.074-.401 1.079 1.079 0 0 1 .324-.78 1.37 1.37 0 0 1 .01-.011 1.137 1.137 0 0 1 .39-.26 1.09 1.09 0 0 1 .401-.074H44V52.055l-.527.492a2.163 2.163 0 0 1-1.567.702 2.618 2.618 0 0 1-.068.001 2.247 2.247 0 0 1-1.63-.665 2.727 2.727 0 0 1-.022-.021 2.255 2.255 0 0 1-.686-1.622 2.712 2.712 0 0 1 0-.03 2.598 2.598 0 0 1 0-.003c0-.366.072-.7.217-1.003a2.281 2.281 0 0 1 .451-.629l15.609-15.574c.446-.446.989-.67 1.627-.67a2.8 2.8 0 0 1 .096.002 2.8 2.8 0 0 1 .096-.002c.628 0 1.164.217 1.606.65a2.634 2.634 0 0 1 .021.02l15.574 15.574a2.163 2.163 0 0 1 .702 1.567 2.618 2.618 0 0 1 .001.068 2.247 2.247 0 0 1-.665 1.63 2.732 2.732 0 0 1-.021.022 2.25 2.25 0 0 1-1.652.686 2.162 2.162 0 0 1-1.588-.654 2.64 2.64 0 0 1-.047-.049ZM54.125 55.5h-4.5a1.079 1.079 0 0 0-.78.324 1.37 1.37 0 0 0-.011.01 1.081 1.081 0 0 0-.334.791V66.75h6.75V56.625a1.079 1.079 0 0 0-.324-.78 1.37 1.37 0 0 0-.01-.011 1.137 1.137 0 0 0-.39-.26 1.09 1.09 0 0 0-.401-.074Zm11.25 0h-4.5a1.079 1.079 0 0 0-.78.324 1.37 1.37 0 0 0-.011.01 1.081 1.081 0 0 0-.334.791v4.5a1.079 1.079 0 0 0 .324.78 1.37 1.37 0 0 0 .01.011c.223.223.486.334.791.334h4.5a1.079 1.079 0 0 0 .78-.324 1.37 1.37 0 0 0 .011-.01c.223-.223.334-.486.334-.791v-4.5a1.079 1.079 0 0 0-.324-.78 1.37 1.37 0 0 0-.01-.011 1.081 1.081 0 0 0-.791-.334Z" fill="#fff" fill-rule="evenodd" data-name="house"/></svg>