<svg xmlns="http://www.w3.org/2000/svg" width="36.002" height="36.003" viewBox="38.999 32.997 36.002 36.003"><path d="M49.285 34.283v17.9l10.768-8.618c.228-.187.496-.281.804-.281a1.233 1.233 0 0 1 .892.37 1.573 1.573 0 0 1 .012.012 1.301 1.301 0 0 1 .297.442 1.244 1.244 0 0 1 .085.462v7.614l10.768-8.618c.228-.187.496-.281.804-.281a1.233 1.233 0 0 1 .892.37 1.568 1.568 0 0 1 .012.012 1.301 1.301 0 0 1 .297.442 1.244 1.244 0 0 1 .085.462v23.143c0 .348-.127.65-.382.904a1.301 1.301 0 0 1-.442.297 1.244 1.244 0 0 1-.462.085h-33.43c-.348 0-.65-.127-.904-.382a1.301 1.301 0 0 1-.297-.442 1.244 1.244 0 0 1-.085-.462V34.283a1.233 1.233 0 0 1 .37-.892 1.568 1.568 0 0 1 .012-.012 1.301 1.301 0 0 1 .442-.297 1.244 1.244 0 0 1 .462-.085h7.714a1.233 1.233 0 0 1 .892.37 1.568 1.568 0 0 1 .012.012 1.301 1.301 0 0 1 .297.442 1.244 1.244 0 0 1 .085.462Z" fill="#fff" fill-rule="evenodd" data-name="industry"/></svg>