<svg xmlns="http://www.w3.org/2000/svg" width="33.811" height="40.053" viewBox="39.594 28.947 33.811 40.053"><g data-name="tree-solid"><path d="M55.249 61.493v-6.507l-6.507-6.506a1.295 1.295 0 0 1-.292-.442c-.173-.44-.075-.942.292-1.31a1.295 1.295 0 0 1 .443-.292c.44-.173.942-.075 1.31.292l4.754 4.755v-7.757l-3.379-3.379c-.44-.44-.493-1.073-.16-1.56a1.352 1.352 0 0 1 .16-.191 1.295 1.295 0 0 1 .443-.293c.44-.173.942-.075 1.31.293l4.128 4.129v3.753l4.13-4.129c.439-.44 1.072-.493 1.559-.16a1.352 1.352 0 0 1 .192.16 1.295 1.295 0 0 1 .293.443c.172.439.074.941-.293 1.309l-5.88 5.88v11.512a16.248 16.248 0 0 0 15.654-16.201 16.586 16.586 0 0 0-.015-.69 16.248 16.248 0 0 0-16.2-15.655 16.587 16.587 0 0 0-.691.014 16.587 16.587 0 0 0-.69-.014A16.248 16.248 0 0 0 39.608 44.6a16.587 16.587 0 0 0-.015.69A16.248 16.248 0 0 0 55.25 61.494Z" fill="#fff" fill-rule="evenodd" data-name="Path 61389"/><path d="M56.5 61.493h-1.251v6.256a1.371 1.371 0 0 0 .138.62c.198.394.596.63 1.113.63.66 0 1.128-.387 1.23-.992a1.549 1.549 0 0 0 .021-.258v-6.256H56.5Z" fill="#fff" fill-rule="evenodd" data-name="Path 61390"/></g></svg>